<svg xmlns="http://www.w3.org/2000/svg" viewBox="0 0 1200 480" preserveAspectRatio="xMidYMid slice">
  <defs>
    <linearGradient id="bg" x1="0" y1="0" x2="1" y2="1">
      <stop offset="0%" stop-color="#0a1224"/>
      <stop offset="60%" stop-color="#0e2042"/>
      <stop offset="100%" stop-color="#0a3554"/>
    </linearGradient>
    <linearGradient id="path" x1="0" y1="0" x2="1" y2="0">
      <stop offset="0%" stop-color="#22d3ee" stop-opacity="0"/>
      <stop offset="20%" stop-color="#22d3ee" stop-opacity="0.6"/>
      <stop offset="55%" stop-color="#67e8f9" stop-opacity="1"/>
      <stop offset="100%" stop-color="#a5f3fc" stop-opacity="0.85"/>
    </linearGradient>
    <radialGradient id="glow" cx="0.78" cy="0.36" r="0.35">
      <stop offset="0%" stop-color="#22d3ee" stop-opacity="0.55"/>
      <stop offset="100%" stop-color="#22d3ee" stop-opacity="0"/>
    </radialGradient>
    <pattern id="grid" width="48" height="48" patternUnits="userSpaceOnUse">
      <path d="M 48 0 L 0 0 0 48" fill="none" stroke="#ffffff" stroke-opacity="0.035" stroke-width="1"/>
    </pattern>
    <filter id="blur" x="-20%" y="-20%" width="140%" height="140%">
      <feGaussianBlur stdDeviation="1.5"/>
    </filter>
    <marker id="arrowhead" markerWidth="6" markerHeight="6" refX="5" refY="3" orient="auto">
      <path d="M0,0 L6,3 L0,6 z" fill="#67e8f9" fill-opacity="0.4"/>
    </marker>
  </defs>

  <rect width="1200" height="480" fill="url(#bg)"/>
  <rect width="1200" height="480" fill="url(#grid)"/>
  <rect width="1200" height="480" fill="url(#glow)"/>

  <g opacity="0.22" stroke="#67e8f9" stroke-width="1.4" fill="none">
    <rect x="120" y="120" width="56" height="56" rx="6"/>
    <rect x="220" y="80" width="56" height="56" rx="6"/>
    <rect x="200" y="220" width="56" height="56" rx="6"/>
    <path d="M 176 148 L 220 108" marker-end="url(#arrowhead)"/>
    <path d="M 176 148 L 200 240" marker-end="url(#arrowhead)"/>
    <path d="M 276 108 L 252 220" marker-end="url(#arrowhead)"/>
  </g>

  <path d="M 80 320 C 130 305 150 345 180 332 C 215 318 235 358 265 340 C 300 318 320 365 350 345 C 385 320 405 372 440 348 C 475 322 500 380 532 348 C 568 312 590 372 622 340 C 656 306 678 358 712 320 C 748 280 770 332 802 290 C 836 246 858 296 890 252 C 924 206 946 254 978 208 C 1010 162 1034 208 1070 168 C 1100 134 1118 168 1140 142"
        fill="none" stroke="url(#path)" stroke-width="3.5" stroke-linecap="round" stroke-linejoin="round"/>

  <g fill="#a5f3fc">
    <circle cx="1075" cy="170" r="3" opacity="0.9"/>
    <circle cx="1098" cy="148" r="2.5" opacity="0.8"/>
    <circle cx="1055" cy="186" r="2" opacity="0.7"/>
    <circle cx="1120" cy="138" r="2.5" opacity="0.85"/>
    <circle cx="1040" cy="195" r="2" opacity="0.6"/>
    <circle cx="1140" cy="125" r="3" opacity="0.95"/>
  </g>

  <g fill="#22d3ee" filter="url(#blur)" opacity="0.55">
    <circle cx="530" cy="345" r="2.5"/>
    <circle cx="610" cy="330" r="2"/>
    <circle cx="700" cy="310" r="2.5"/>
    <circle cx="800" cy="280" r="2"/>
  </g>

  <line x1="60" y1="420" x2="1140" y2="420" stroke="#67e8f9" stroke-opacity="0.18" stroke-width="1"/>
  <line x1="60" y1="420" x2="60" y2="60" stroke="#67e8f9" stroke-opacity="0.18" stroke-width="1"/>
</svg>
